<svg width="27" height="27" viewBox="0 0 27 27" fill="none" xmlns="http://www.w3.org/2000/svg">
<path fill-rule="evenodd" clip-rule="evenodd" d="M20 9.83325H0V8.33325H20V9.83325Z" fill="black"/>
<path fill-rule="evenodd" clip-rule="evenodd" d="M16 17.8333H0V16.3333H16V17.8333Z" fill="black"/>
<path fill-rule="evenodd" clip-rule="evenodd" d="M20 25.8333H0V24.3333H20V25.8333Z" fill="black"/>
<rect x="13" width="14" height="14" rx="7" fill="#CC0E00"/>
<path d="M19.3987 7.376V6.656H19.8227C20.1214 6.656 20.3454 6.58667 20.4947 6.448C20.6494 6.30933 20.7267 6.08533 20.7267 5.776C20.7267 5.2 20.4547 4.912 19.9107 4.912C19.4094 4.912 19.0681 5.18933 18.8867 5.744L18.1827 5.496C18.3054 5.07467 18.5241 4.74133 18.8387 4.496C19.1587 4.24533 19.5454 4.12 19.9987 4.12C20.5534 4.12 20.9721 4.264 21.2547 4.552C21.5427 4.84 21.6867 5.21067 21.6867 5.664C21.6867 6.336 21.4254 6.77067 20.9027 6.968V6.984C21.5001 7.144 21.7987 7.58667 21.7987 8.312C21.7987 8.89333 21.6387 9.33333 21.3187 9.632C21.0041 9.93067 20.5534 10.08 19.9667 10.08C19.0227 10.08 18.4147 9.656 18.1427 8.808L18.8307 8.536C19.0281 9.05333 19.3881 9.312 19.9107 9.312C20.2307 9.312 20.4601 9.224 20.5987 9.048C20.7427 8.872 20.8147 8.608 20.8147 8.256C20.8147 7.936 20.7321 7.70933 20.5667 7.576C20.4067 7.44267 20.1641 7.376 19.8387 7.376H19.3987Z" fill="white"/>
</svg>
