<svg width="211" height="64" fill="none" xmlns="http://www.w3.org/2000/svg"><path d="M28.047 63.5S1 55.447 1 15.71V.5h54.1v15.21c0 38.318-27.052 47.79-27.052 47.79z" fill="#51AF3D"/><path d="M70.135 31.014v-21.5h13.06v1.582a2.948 2.948 0 01-.857 2.067 2.903 2.903 0 01-2.055.851h-4.94v4.518h6.502v1.536c0 .79-.312 1.55-.866 2.108a2.945 2.945 0 01-2.091.874h-3.545v7.964h-5.209zm16.005 0v-21.5h7.425c1.888 0 3.27.17 4.145.51a5.915 5.915 0 012.893 2.331 7.07 7.07 0 011.042 3.926 7.491 7.491 0 01-.834 3.443 5.36 5.36 0 01-2.352 2.417v.061c.295.414.563.846.804 1.293l4.145 7.519h-5.817l-3.788-7.248h-2.437v7.248H86.14zm5.217-11.76h2.269a2.748 2.748 0 001.995-.691 2.576 2.576 0 00.706-1.954c0-1.185-.417-1.948-1.251-2.288a5.086 5.086 0 00-1.968-.307h-1.76l.009 5.24zm14.413 11.76v-21.5h13.358v4.5h-8.147v3.916h6.502v4.512h-6.502v4.06h8.558v4.512H105.77zm17.111 0v-21.5h13.361v4.5h-8.144v3.916h6.502v4.512h-6.502v4.06h8.561v4.512h-13.778zm17.115 0v-21.5h7.575c3.376 0 6.056.947 8.037 2.841 1.982 1.894 2.971 4.516 2.967 7.866 0 3.366-.989 6.007-2.967 7.921-1.977 1.915-4.656 2.873-8.037 2.875l-7.575-.003zm5.221-4.512h2.147c1.827 0 3.248-.541 4.264-1.625 1.015-1.083 1.528-2.636 1.538-4.659 0-2.006-.517-3.542-1.551-4.607-1.033-1.065-2.454-1.595-4.263-1.59h-2.148l.013 12.481zm15.592-6.376c0-3.127 1.044-5.738 3.131-7.835 2.088-2.097 4.762-3.144 8.022-3.142 3.261 0 5.935 1.047 8.023 3.142 2.087 2.095 3.135 4.706 3.143 7.835 0 3.206-1.048 5.879-3.143 8.016-2.096 2.138-4.77 3.21-8.023 3.22-3.26.007-5.934-1.066-8.022-3.22-2.087-2.154-3.131-4.826-3.131-8.016zm5.397 0c0 1.843.542 3.378 1.627 4.607a5.585 5.585 0 004.129 1.837 5.585 5.585 0 004.13-1.837c1.085-1.229 1.627-2.764 1.627-4.607a6.246 6.246 0 00-1.627-4.407 5.73 5.73 0 00-8.259 0 6.246 6.246 0 00-1.627 4.407zm19.386 10.889l1.757-21.5h5.668l3.101 9.076 1.072 3.55h.061a84.267 84.267 0 011.075-3.55l3.1-9.079h5.668l1.73 21.5h-5.22l-.655-9.684a18.916 18.916 0 01-.061-1.625c0-.602 0-1.081.028-1.444l.033-.54h-.061a136.858 136.858 0 01-1.194 3.608l-2.235 6.226h-4.474l-2.236-6.226-1.194-3.608h-.061a27.15 27.15 0 010 3.608l-.654 9.685-5.248.003zM70.367 54.021v-12.86h3.119v5.145h4.638V41.16h3.122v12.86h-3.122v-5.037h-4.638v5.037h-3.12zM83.23 47.51a6.393 6.393 0 01.454-2.539 6.35 6.35 0 011.42-2.147c1.248-1.253 2.847-1.88 4.797-1.88 1.949 0 3.549.627 4.8 1.88a6.348 6.348 0 011.417 2.148c.322.806.476 1.67.453 2.539a6.639 6.639 0 01-.45 2.594 6.595 6.595 0 01-1.42 2.21c-1.253 1.29-2.855 1.934-4.806 1.934-1.952 0-3.55-.64-4.797-1.922a6.593 6.593 0 01-1.422-2.216 6.636 6.636 0 01-.445-2.6zm3.229 0a3.995 3.995 0 00.971 2.765 3.351 3.351 0 002.473 1.085 3.325 3.325 0 002.465-1.103 3.994 3.994 0 00.974-2.764c.03-.974-.32-1.92-.974-2.636a3.44 3.44 0 00-2.47-1.054 3.417 3.417 0 00-2.47 1.054 3.728 3.728 0 00-.975 2.654h.006zm12.087 6.511v-12.86h3.119v10.16h5.208v2.7h-8.327zm9.844 0v-12.86h4.532c2.018 0 3.62.566 4.806 1.699 1.186 1.132 1.777 2.7 1.775 4.702 0 2.015-.591 3.595-1.775 4.74-1.184 1.144-2.786 1.717-4.806 1.72h-4.532zm3.122-2.7h1.285c1.094 0 1.947-.323 2.558-.97.611-.647.916-1.577.914-2.789 0-1.198-.31-2.12-.929-2.764-.619-.645-1.469-.962-2.549-.952h-1.285l.006 7.476zm10.024 2.7v-12.86h3.116v12.86h-3.116zm5.798 0v-12.86h3.156l3.533 6.023c.143.252.304.56.481.922s.304.67.426.921l.162.36h.036c-.095-.924-.143-1.655-.143-2.193V41.16h3.122v12.86h-3.14l-3.548-5.989a20.664 20.664 0 01-.911-1.843l-.161-.36h-.034c.094.924.141 1.656.143 2.197v5.99l-3.122.005zm12.77-6.458a6.446 6.446 0 01.466-2.561 6.393 6.393 0 011.441-2.16 6.527 6.527 0 012.202-1.445 6.487 6.487 0 012.589-.453c1.985 0 3.621.569 4.906 1.707l-1.501 2.36a4.514 4.514 0 00-1.426-.845 4.536 4.536 0 00-1.675-.344c-1.261 0-2.204.345-2.829 1.035a3.728 3.728 0 00-.935 2.598 3.824 3.824 0 001.06 2.841 3.541 3.541 0 002.595 1.063 4.115 4.115 0 002.588-.922v-.992h-1.803v-2.69h4.569v7.267h-2.604v-.36l.018-.54h-.036a4.256 4.256 0 01-1.49.807c-.6.204-1.23.308-1.864.308a6.049 6.049 0 01-2.39-.455 6.091 6.091 0 01-2.023-1.36c-1.238-1.213-1.858-2.832-1.858-4.86zm18.614 0a6.449 6.449 0 011.883-4.73c1.254-1.259 2.858-1.889 4.809-1.889.888 0 1.769.156 2.604.461.814.287 1.557.75 2.174 1.358l-1.443 2.374a5.46 5.46 0 00-1.508-.946 4.297 4.297 0 00-1.687-.369c-1.188 0-2.085.357-2.692 1.072a3.871 3.871 0 00-.914 2.599 4.164 4.164 0 00.938 2.715c.625.767 1.514 1.151 2.665 1.151 1.218 0 2.348-.527 3.39-1.581l1.605 2.3a6.852 6.852 0 01-2.342 1.624c-.884.37-1.836.55-2.793.526-2.031 0-3.655-.627-4.873-1.88-1.219-1.253-1.824-2.848-1.816-4.785zm12.416-.053a6.362 6.362 0 011.874-4.687c1.248-1.252 2.848-1.879 4.799-1.879 1.952 0 3.551.627 4.797 1.88a6.376 6.376 0 011.873 4.687 6.626 6.626 0 01-1.873 4.804c-1.248 1.29-2.847 1.934-4.797 1.934-1.949 0-3.549-.64-4.799-1.922a6.585 6.585 0 01-1.425-2.215 6.64 6.64 0 01-.449-2.601zm3.229 0a4.016 4.016 0 00.971 2.765 3.35 3.35 0 002.472 1.098 3.323 3.323 0 002.471-1.098 3.995 3.995 0 00.972-2.764 3.723 3.723 0 00-.972-2.635 3.422 3.422 0 00-4.943 0 3.741 3.741 0 00-.971 2.635zm12.095 6.512v-12.86h4.44a7.388 7.388 0 012.479.307 3.53 3.53 0 011.73 1.395c.428.704.64 1.52.61 2.346a4.513 4.513 0 01-.5 2.061 3.188 3.188 0 01-1.407 1.447v.036c.175.249.336.507.481.775l2.479 4.496h-3.463l-2.259-4.34h-1.462v4.337h-3.128zm3.122-7.033h1.355c.437.026.866-.123 1.194-.415a1.543 1.543 0 00.429-1.167c0-.71-.25-1.164-.749-1.37a3.11 3.11 0 00-1.179-.178h-1.05v3.13zm8.611 7.033v-12.86h5.3a3.893 3.893 0 013.003 1.228 4.5 4.5 0 011.151 3.185 4.56 4.56 0 01-1.151 3.213 3.912 3.912 0 01-1.367.953 3.878 3.878 0 01-1.636.294h-2.178v3.977l-3.122.01zm3.122-6.675h1.523a1.514 1.514 0 001.218-.485 1.89 1.89 0 00.421-1.278 1.853 1.853 0 00-.412-1.259 1.468 1.468 0 00-1.16-.467h-1.587l-.003 3.49zm6.76 5.2c0-.392.154-.767.429-1.044a1.459 1.459 0 012.071 0 1.48 1.48 0 01.316 1.609 1.46 1.46 0 01-2.816-.564z" fill="#000"/><path d="M43.664 15.829H21.876v12.62h21.788v3.781c0 6.392-1.788 11.552-11.427 11.573H21.882v16.68c3.578 2.243 6.17 3.017 6.17 3.017s27.052-9.472 27.052-47.79V4.246c-.006 6.388-2.812 11.465-11.44 11.582z" fill="#0F5431"/></svg>