<svg width="27" height="27" viewBox="0 0 27 27" fill="none" xmlns="http://www.w3.org/2000/svg">
<path fill-rule="evenodd" clip-rule="evenodd" d="M0.949048 8.89858H2.27833L2.28981 8.94108L5.07967 19.3243L5.09482 19.3623C5.1652 19.5387 5.28684 19.69 5.44404 19.7966C5.60124 19.9032 5.78717 19.9602 5.97712 19.9603H16.976C17.163 19.9612 17.4069 19.9067 17.5631 19.8037C17.7204 19.7 17.8432 19.5517 17.9159 19.3778L17.9362 19.3291L19.9507 11.2682L19.9513 11.2664C20.0463 10.9813 19.9998 10.6702 19.8337 10.4265L19.8234 10.4115L19.8124 10.397C19.6323 10.1604 19.3535 10.0173 19.0501 10.0173H4.64873L3.85948 7.64856L3.85879 7.64651C3.73042 7.26518 3.37272 7.00049 2.96028 7.00049H0.949048C0.697345 7.00049 0.455951 7.10048 0.27797 7.27846C0.0999886 7.45644 0 7.69783 0 7.94954C0 8.20124 0.0999888 8.44263 0.27797 8.62061C0.45595 8.79859 0.697344 8.89858 0.949048 8.89858ZM18.4764 11.4126H4.39866L6.32044 18.565H16.689L18.4764 11.4126Z" fill="black"/>
<path fill-rule="evenodd" clip-rule="evenodd" d="M7.98731 22.4745C7.57225 22.4745 7.17419 22.6394 6.8807 22.9329C6.58721 23.2263 6.42233 23.6244 6.42233 24.0395C6.42233 24.4545 6.58721 24.8526 6.8807 25.1461C7.17419 25.4396 7.57225 25.6045 7.98731 25.6045C8.40237 25.6045 8.80043 25.4396 9.09393 25.1461C9.38742 24.8526 9.5523 24.4545 9.5523 24.0395C9.5523 23.6244 9.38742 23.2263 9.09393 22.9329C8.80043 22.6394 8.40237 22.4745 7.98731 22.4745ZM5.89408 21.9462C6.44924 21.3911 7.2022 21.0792 7.98731 21.0792C8.77242 21.0792 9.52538 21.3911 10.0805 21.9462C10.6357 22.5014 10.9476 23.2543 10.9476 24.0395C10.9476 24.8246 10.6357 25.5775 10.0805 26.1327C9.52538 26.6879 8.77243 26.9997 7.98731 26.9997C7.2022 26.9997 6.44924 26.6879 5.89408 26.1327C5.33892 25.5775 5.02704 24.8246 5.02704 24.0395C5.02704 23.2543 5.33892 22.5014 5.89408 21.9462ZM15.0276 22.4745C14.6126 22.4745 14.2145 22.6394 13.921 22.9329C13.6275 23.2263 13.4626 23.6244 13.4626 24.0395C13.4626 24.4545 13.6275 24.8526 13.921 25.1461C14.2145 25.4396 14.6126 25.6045 15.0276 25.6045C15.4427 25.6045 15.8407 25.4396 16.1342 25.1461C16.4277 24.8526 16.5926 24.4545 16.5926 24.0395C16.5926 23.6244 16.4277 23.2263 16.1342 22.9329C15.8407 22.6394 15.4427 22.4745 15.0276 22.4745ZM12.9344 21.9462C13.4895 21.3911 14.2425 21.0792 15.0276 21.0792C15.8127 21.0792 16.5657 21.3911 17.1208 21.9462C17.676 22.5014 17.9879 23.2543 17.9879 24.0395C17.9879 24.8246 17.676 25.5775 17.1208 26.1327C16.5657 26.6879 15.8127 26.9997 15.0276 26.9997C14.2425 26.9997 13.4895 26.6879 12.9344 26.1327C12.3792 25.5775 12.0673 24.8246 12.0673 24.0395C12.0673 23.2543 12.3792 22.5014 12.9344 21.9462Z" fill="black"/>
<rect x="13" y="0.000488281" width="14" height="14" rx="7" fill="#CC0E00"/>
<path d="M19.3987 7.37649V6.65649H19.8227C20.1214 6.65649 20.3454 6.58715 20.4947 6.44849C20.6494 6.30982 20.7267 6.08582 20.7267 5.77649C20.7267 5.20049 20.4547 4.91249 19.9107 4.91249C19.4094 4.91249 19.0681 5.18982 18.8867 5.74449L18.1827 5.49649C18.3054 5.07515 18.5241 4.74182 18.8387 4.49649C19.1587 4.24582 19.5454 4.12049 19.9987 4.12049C20.5534 4.12049 20.9721 4.26449 21.2547 4.55249C21.5427 4.84049 21.6867 5.21115 21.6867 5.66449C21.6867 6.33649 21.4254 6.77115 20.9027 6.96849V6.98449C21.5001 7.14449 21.7987 7.58715 21.7987 8.31249C21.7987 8.89382 21.6387 9.33382 21.3187 9.63249C21.0041 9.93115 20.5534 10.0805 19.9667 10.0805C19.0227 10.0805 18.4147 9.65649 18.1427 8.80849L18.8307 8.53649C19.0281 9.05382 19.3881 9.31249 19.9107 9.31249C20.2307 9.31249 20.4601 9.22449 20.5987 9.04849C20.7427 8.87249 20.8147 8.60849 20.8147 8.25649C20.8147 7.93649 20.7321 7.70982 20.5667 7.57649C20.4067 7.44315 20.1641 7.37649 19.8387 7.37649H19.3987Z" fill="white"/>
</svg>
